# xmcd
#
# Track frame offsets:
#	150
#	10929
#	22886
#	32959
#	50009
#	63321
#	75498
#	92391
#	104453
#	114848
#	124727
#	141126
#
# Disc length: 2047 seconds
#
# Revision: 1
# Processed by: cddbd v1.5.2PL0 Copyright (c) Steve Scherf et al.
# Submitted via: audiograbber 1.83.01
#
DISCID=8f07fd0c
DTITLE=Dailey and Vincent - Sing The Statler Brothers
DYEAR=2010
DGENRE=Bluegrass
TTITLE0=Flowers On The Wall
TTITLE1=Class of '57
TTITLE2=Hello Mary Lou Goodbye Heart
TTITLE3=Too Much On My Heart
TTITLE4=Susan When She Tried
TTITLE5=I'll Go To My Grave Lovin' You
TTITLE6=Elizabeth
TTITLE7=Bed Of Roses
TTITLE8=Do You Know You Are My Sunshine
TTITLE9=The Brave Apostles Twelve
TTITLE10=My Only Love
TTITLE11=Thank You World
EXTD=
EXTT0=
EXTT1=
EXTT2=
EXTT3=
EXTT4=
EXTT5=
EXTT6=
EXTT7=
EXTT8=
EXTT9=
EXTT10=
EXTT11=
PLAYORDER=
